{
    "asset" : {
        "generator" : "Khronos glTF Blender I/O v1.8.19",
        "version" : "2.0"
    },
    "scene" : 0,
    "scenes" : [
        {
            "name" : "Scene",
            "nodes" : [
                0,
                1,
                4,
                11
            ]
        }
    ],
    "nodes" : [
        {
            "mesh" : 0,
            "name" : "Cube"
        },
        {
            "mesh" : 1,
            "name" : "Text",
            "rotation" : [
                0.5,
                0.5,
                -0.5,
                0.4999999701976776
            ],
            "scale" : [
                0.4518243670463562,
                0.4518243670463562,
                0.4518243670463562
            ],
            "translation" : [
                0.7461974620819092,
                0,
                0
            ]
        },
        {
            "mesh" : 2,
            "name" : "Cube.002",
            "scale" : [
                3.5304453372955322,
                3.5304453372955322,
                3.5304453372955322
            ],
            "translation" : [
                0.06592974811792374,
                -4.16402530670166,
                5.1729254722595215
            ]
        },
        {
            "mesh" : 3,
            "name" : "Cube.003",
            "scale" : [
                3.5304453372955322,
                3.5304453372955322,
                3.5304453372955322
            ],
            "translation" : [
                -2.065009355545044,
                -4.330027103424072,
                -4.971189498901367
            ]
        },
        {
            "children" : [
                2,
                3
            ],
            "name" : "Empty",
            "scale" : [
                0.2832503318786621,
                0.2832503318786621,
                0.2832503318786621
            ],
            "translation" : [
                0,
                1.1794615983963013,
                0
            ]
        },
        {
            "mesh" : 4,
            "name" : "Cube.001",
            "scale" : [
                0.8443161249160767,
                0.8443160057067871,
                0.8443161249160767
            ],
            "translation" : [
                -1.32396399974823,
                -6.189256191253662,
                -10.454813957214355
            ]
        },
        {
            "mesh" : 5,
            "name" : "Cube.004",
            "scale" : [
                0.8443161249160767,
                0.8443160057067871,
                0.8443161249160767
            ],
            "translation" : [
                -9.328840255737305,
                -6.189256191253662,
                0.8685722947120667
            ]
        },
        {
            "mesh" : 6,
            "name" : "Cube.005",
            "scale" : [
                0.8882072567939758,
                0.8882071375846863,
                0.8882072567939758
            ],
            "translation" : [
                6.385693550109863,
                -6.182442665100098,
                8.339658737182617
            ]
        },
        {
            "mesh" : 7,
            "name" : "Cube.006",
            "scale" : [
                0.8443161249160767,
                0.8443160057067871,
                0.8443161249160767
            ],
            "translation" : [
                9.84725284576416,
                -6.189256191253662,
                1.7942990064620972
            ]
        },
        {
            "mesh" : 8,
            "name" : "Cube.007",
            "scale" : [
                0.8443161249160767,
                0.8443160057067871,
                0.8443161249160767
            ],
            "translation" : [
                6.341330051422119,
                -6.189256191253662,
                -6.164431571960449
            ]
        },
        {
            "mesh" : 9,
            "name" : "Cube.008",
            "scale" : [
                0.8882072567939758,
                0.8882071375846863,
                0.8882072567939758
            ],
            "translation" : [
                -1.9131722450256348,
                -6.182442665100098,
                9.722576141357422
            ]
        },
        {
            "children" : [
                5,
                6,
                7,
                8,
                9,
                10
            ],
            "name" : "Empty.001",
            "scale" : [
                0.2832503318786621,
                0.2832503318786621,
                0.2832503318786621
            ],
            "translation" : [
                0,
                1.753109097480774,
                0
            ]
        }
    ],
    "animations" : [
        {
            "channels" : [
                {
                    "sampler" : 0,
                    "target" : {
                        "node" : 4,
                        "path" : "rotation"
                    }
                }
            ],
            "name" : "EmptyAction",
            "samplers" : [
                {
                    "input" : 32,
                    "interpolation" : "LINEAR",
                    "output" : 33
                }
            ]
        },
        {
            "channels" : [
                {
                    "sampler" : 0,
                    "target" : {
                        "node" : 11,
                        "path" : "rotation"
                    }
                }
            ],
            "name" : "Empty.001Action",
            "samplers" : [
                {
                    "input" : 32,
                    "interpolation" : "LINEAR",
                    "output" : 34
                }
            ]
        }
    ],
    "materials" : [
        {
            "doubleSided" : true,
            "name" : "Material.001",
            "pbrMetallicRoughness" : {
                "baseColorFactor" : [
                    0,
                    0.0002540182031225413,
                    0.8000000715255737,
                    1
                ],
                "metallicFactor" : 0,
                "roughnessFactor" : 0.5
            }
        },
        {
            "doubleSided" : true,
            "name" : "Material.002",
            "pbrMetallicRoughness" : {
                "metallicFactor" : 0,
                "roughnessFactor" : 0.5
            }
        },
        {
            "doubleSided" : true,
            "name" : "Material.003",
            "pbrMetallicRoughness" : {
                "baseColorFactor" : [
                    0.8000000715255737,
                    0,
                    0.007165797986090183,
                    1
                ],
                "metallicFactor" : 0,
                "roughnessFactor" : 0.5
            }
        },
        {
            "doubleSided" : true,
            "name" : "Material.004",
            "pbrMetallicRoughness" : {
                "baseColorFactor" : [
                    0.8000000715255737,
                    0,
                    0.0013133095344528556,
                    1
                ],
                "metallicFactor" : 0,
                "roughnessFactor" : 0.5
            }
        }
    ],
    "meshes" : [
        {
            "name" : "Cube.001",
            "primitives" : [
                {
                    "attributes" : {
                        "POSITION" : 0,
                        "NORMAL" : 1,
                        "TEXCOORD_0" : 2
                    },
                    "indices" : 3,
                    "material" : 0
                }
            ]
        },
        {
            "name" : "Text",
            "primitives" : [
                {
                    "attributes" : {
                        "POSITION" : 4,
                        "NORMAL" : 5,
                        "TEXCOORD_0" : 6
                    },
                    "indices" : 7,
                    "material" : 1
                }
            ]
        },
        {
            "name" : "Cube.002",
            "primitives" : [
                {
                    "attributes" : {
                        "POSITION" : 8,
                        "NORMAL" : 9,
                        "TEXCOORD_0" : 10
                    },
                    "indices" : 3,
                    "material" : 2
                }
            ]
        },
        {
            "name" : "Cube.003",
            "primitives" : [
                {
                    "attributes" : {
                        "POSITION" : 11,
                        "NORMAL" : 12,
                        "TEXCOORD_0" : 13
                    },
                    "indices" : 3,
                    "material" : 2
                }
            ]
        },
        {
            "name" : "Cube.009",
            "primitives" : [
                {
                    "attributes" : {
                        "POSITION" : 14,
                        "NORMAL" : 15,
                        "TEXCOORD_0" : 16
                    },
                    "indices" : 3,
                    "material" : 3
                }
            ]
        },
        {
            "name" : "Cube.010",
            "primitives" : [
                {
                    "attributes" : {
                        "POSITION" : 17,
                        "NORMAL" : 18,
                        "TEXCOORD_0" : 19
                    },
                    "indices" : 3,
                    "material" : 3
                }
            ]
        },
        {
            "name" : "Cube",
            "primitives" : [
                {
                    "attributes" : {
                        "POSITION" : 20,
                        "NORMAL" : 21,
                        "TEXCOORD_0" : 22
                    },
                    "indices" : 3,
                    "material" : 3
                }
            ]
        },
        {
            "name" : "Cube.006",
            "primitives" : [
                {
                    "attributes" : {
                        "POSITION" : 23,
                        "NORMAL" : 24,
                        "TEXCOORD_0" : 25
                    },
                    "indices" : 3,
                    "material" : 3
                }
            ]
        },
        {
            "name" : "Cube.007",
            "primitives" : [
                {
                    "attributes" : {
                        "POSITION" : 26,
                        "NORMAL" : 27,
                        "TEXCOORD_0" : 28
                    },
                    "indices" : 3,
                    "material" : 3
                }
            ]
        },
        {
            "name" : "Cube.008",
            "primitives" : [
                {
                    "attributes" : {
                        "POSITION" : 29,
                        "NORMAL" : 30,
                        "TEXCOORD_0" : 31
                    },
                    "indices" : 3,
                    "material" : 3
                }
            ]
        }
    ],
    "accessors" : [
        {
            "bufferView" : 0,
            "componentType" : 5126,
            "count" : 6369,
            "max" : [
                0.8395062685012817,
                0.8395062685012817,
                0.8395062685012817
            ],
            "min" : [
                -0.8395062685012817,
                -0.8395062685012817,
                -0.8395062685012817
            ],
            "type" : "VEC3"
        },
        {
            "bufferView" : 1,
            "componentType" : 5126,
            "count" : 6369,
            "type" : "VEC3"
        },
        {
            "bufferView" : 2,
            "componentType" : 5126,
            "count" : 6369,
            "type" : "VEC2"
        },
        {
            "bufferView" : 3,
            "componentType" : 5123,
            "count" : 36864,
            "type" : "SCALAR"
        },
        {
            "bufferView" : 4,
            "componentType" : 5126,
            "count" : 842,
            "max" : [
                1.3870000839233398,
                0,
                1.2300000190734863
            ],
            "min" : [
                -1.412000060081482,
                0,
                -0.6910000443458557
            ],
            "type" : "VEC3"
        },
        {
            "bufferView" : 5,
            "componentType" : 5126,
            "count" : 842,
            "type" : "VEC3"
        },
        {
            "bufferView" : 6,
            "componentType" : 5126,
            "count" : 842,
            "type" : "VEC2"
        },
        {
            "bufferView" : 7,
            "componentType" : 5123,
            "count" : 1860,
            "type" : "SCALAR"
        },
        {
            "bufferView" : 8,
            "componentType" : 5126,
            "count" : 6369,
            "max" : [
                0.20987656712532043,
                0.20987656712532043,
                0.20987656712532043
            ],
            "min" : [
                -0.20987656712532043,
                -0.20987656712532043,
                -0.20987656712532043
            ],
            "type" : "VEC3"
        },
        {
            "bufferView" : 9,
            "componentType" : 5126,
            "count" : 6369,
            "type" : "VEC3"
        },
        {
            "bufferView" : 10,
            "componentType" : 5126,
            "count" : 6369,
            "type" : "VEC2"
        },
        {
            "bufferView" : 11,
            "componentType" : 5126,
            "count" : 6369,
            "max" : [
                0.20987656712532043,
                0.20987656712532043,
                0.20987656712532043
            ],
            "min" : [
                -0.20987656712532043,
                -0.20987656712532043,
                -0.20987656712532043
            ],
            "type" : "VEC3"
        },
        {
            "bufferView" : 12,
            "componentType" : 5126,
            "count" : 6369,
            "type" : "VEC3"
        },
        {
            "bufferView" : 13,
            "componentType" : 5126,
            "count" : 6369,
            "type" : "VEC2"
        },
        {
            "bufferView" : 14,
            "componentType" : 5126,
            "count" : 6369,
            "max" : [
                0.8395062685012817,
                0.8395062685012817,
                0.8395062685012817
            ],
            "min" : [
                -0.8395062685012817,
                -0.8395062685012817,
                -0.8395062685012817
            ],
            "type" : "VEC3"
        },
        {
            "bufferView" : 15,
            "componentType" : 5126,
            "count" : 6369,
            "type" : "VEC3"
        },
        {
            "bufferView" : 16,
            "componentType" : 5126,
            "count" : 6369,
            "type" : "VEC2"
        },
        {
            "bufferView" : 17,
            "componentType" : 5126,
            "count" : 6369,
            "max" : [
                0.8395062685012817,
                0.8395062685012817,
                0.8395062685012817
            ],
            "min" : [
                -0.8395062685012817,
                -0.8395062685012817,
                -0.8395062685012817
            ],
            "type" : "VEC3"
        },
        {
            "bufferView" : 18,
            "componentType" : 5126,
            "count" : 6369,
            "type" : "VEC3"
        },
        {
            "bufferView" : 19,
            "componentType" : 5126,
            "count" : 6369,
            "type" : "VEC2"
        },
        {
            "bufferView" : 20,
            "componentType" : 5126,
            "count" : 6369,
            "max" : [
                0.8395062685012817,
                0.8395062685012817,
                0.8395062685012817
            ],
            "min" : [
                -0.8395062685012817,
                -0.8395062685012817,
                -0.8395062685012817
            ],
            "type" : "VEC3"
        },
        {
            "bufferView" : 21,
            "componentType" : 5126,
            "count" : 6369,
            "type" : "VEC3"
        },
        {
            "bufferView" : 22,
            "componentType" : 5126,
            "count" : 6369,
            "type" : "VEC2"
        },
        {
            "bufferView" : 23,
            "componentType" : 5126,
            "count" : 6369,
            "max" : [
                0.8395062685012817,
                0.8395062685012817,
                0.8395062685012817
            ],
            "min" : [
                -0.8395062685012817,
                -0.8395062685012817,
                -0.8395062685012817
            ],
            "type" : "VEC3"
        },
        {
            "bufferView" : 24,
            "componentType" : 5126,
            "count" : 6369,
            "type" : "VEC3"
        },
        {
            "bufferView" : 25,
            "componentType" : 5126,
            "count" : 6369,
            "type" : "VEC2"
        },
        {
            "bufferView" : 26,
            "componentType" : 5126,
            "count" : 6369,
            "max" : [
                0.8395062685012817,
                0.8395062685012817,
                0.8395062685012817
            ],
            "min" : [
                -0.8395062685012817,
                -0.8395062685012817,
                -0.8395062685012817
            ],
            "type" : "VEC3"
        },
        {
            "bufferView" : 27,
            "componentType" : 5126,
            "count" : 6369,
            "type" : "VEC3"
        },
        {
            "bufferView" : 28,
            "componentType" : 5126,
            "count" : 6369,
            "type" : "VEC2"
        },
        {
            "bufferView" : 29,
            "componentType" : 5126,
            "count" : 6369,
            "max" : [
                0.8395062685012817,
                0.8395062685012817,
                0.8395062685012817
            ],
            "min" : [
                -0.8395062685012817,
                -0.8395062685012817,
                -0.8395062685012817
            ],
            "type" : "VEC3"
        },
        {
            "bufferView" : 30,
            "componentType" : 5126,
            "count" : 6369,
            "type" : "VEC3"
        },
        {
            "bufferView" : 31,
            "componentType" : 5126,
            "count" : 6369,
            "type" : "VEC2"
        },
        {
            "bufferView" : 32,
            "componentType" : 5126,
            "count" : 91,
            "max" : [
                3.75
            ],
            "min" : [
                0
            ],
            "type" : "SCALAR"
        },
        {
            "bufferView" : 33,
            "componentType" : 5126,
            "count" : 91,
            "type" : "VEC4"
        },
        {
            "bufferView" : 34,
            "componentType" : 5126,
            "count" : 91,
            "type" : "VEC4"
        }
    ],
    "bufferViews" : [
        {
            "buffer" : 0,
            "byteLength" : 76428,
            "byteOffset" : 0
        },
        {
            "buffer" : 0,
            "byteLength" : 76428,
            "byteOffset" : 76428
        },
        {
            "buffer" : 0,
            "byteLength" : 50952,
            "byteOffset" : 152856
        },
        {
            "buffer" : 0,
            "byteLength" : 73728,
            "byteOffset" : 203808
        },
        {
            "buffer" : 0,
            "byteLength" : 10104,
            "byteOffset" : 277536
        },
        {
            "buffer" : 0,
            "byteLength" : 10104,
            "byteOffset" : 287640
        },
        {
            "buffer" : 0,
            "byteLength" : 6736,
            "byteOffset" : 297744
        },
        {
            "buffer" : 0,
            "byteLength" : 3720,
            "byteOffset" : 304480
        },
        {
            "buffer" : 0,
            "byteLength" : 76428,
            "byteOffset" : 308200
        },
        {
            "buffer" : 0,
            "byteLength" : 76428,
            "byteOffset" : 384628
        },
        {
            "buffer" : 0,
            "byteLength" : 50952,
            "byteOffset" : 461056
        },
        {
            "buffer" : 0,
            "byteLength" : 76428,
            "byteOffset" : 512008
        },
        {
            "buffer" : 0,
            "byteLength" : 76428,
            "byteOffset" : 588436
        },
        {
            "buffer" : 0,
            "byteLength" : 50952,
            "byteOffset" : 664864
        },
        {
            "buffer" : 0,
            "byteLength" : 76428,
            "byteOffset" : 715816
        },
        {
            "buffer" : 0,
            "byteLength" : 76428,
            "byteOffset" : 792244
        },
        {
            "buffer" : 0,
            "byteLength" : 50952,
            "byteOffset" : 868672
        },
        {
            "buffer" : 0,
            "byteLength" : 76428,
            "byteOffset" : 919624
        },
        {
            "buffer" : 0,
            "byteLength" : 76428,
            "byteOffset" : 996052
        },
        {
            "buffer" : 0,
            "byteLength" : 50952,
            "byteOffset" : 1072480
        },
        {
            "buffer" : 0,
            "byteLength" : 76428,
            "byteOffset" : 1123432
        },
        {
            "buffer" : 0,
            "byteLength" : 76428,
            "byteOffset" : 1199860
        },
        {
            "buffer" : 0,
            "byteLength" : 50952,
            "byteOffset" : 1276288
        },
        {
            "buffer" : 0,
            "byteLength" : 76428,
            "byteOffset" : 1327240
        },
        {
            "buffer" : 0,
            "byteLength" : 76428,
            "byteOffset" : 1403668
        },
        {
            "buffer" : 0,
            "byteLength" : 50952,
            "byteOffset" : 1480096
        },
        {
            "buffer" : 0,
            "byteLength" : 76428,
            "byteOffset" : 1531048
        },
        {
            "buffer" : 0,
            "byteLength" : 76428,
            "byteOffset" : 1607476
        },
        {
            "buffer" : 0,
            "byteLength" : 50952,
            "byteOffset" : 1683904
        },
        {
            "buffer" : 0,
            "byteLength" : 76428,
            "byteOffset" : 1734856
        },
        {
            "buffer" : 0,
            "byteLength" : 76428,
            "byteOffset" : 1811284
        },
        {
            "buffer" : 0,
            "byteLength" : 50952,
            "byteOffset" : 1887712
        },
        {
            "buffer" : 0,
            "byteLength" : 364,
            "byteOffset" : 1938664
        },
        {
            "buffer" : 0,
            "byteLength" : 1456,
            "byteOffset" : 1939028
        },
        {
            "buffer" : 0,
            "byteLength" : 1456,
            "byteOffset" : 1940484
        }
    ],
    "buffers" : [
        {
            "byteLength" : 1941940,
            "uri" : "data:application/octet-stream;base64,"
        }
    ]
}
