{
    "asset" : {
        "generator" : "Khronos glTF Blender I/O v1.8.19",
        "version" : "2.0"
    },
    "scene" : 0,
    "scenes" : [
        {
            "name" : "Scene",
            "nodes" : [
                0
            ]
        }
    ],
    "nodes" : [
        {
            "mesh" : 0,
            "name" : "Cube",
            "rotation" : [
                -0.5604900121688843,
                0.43368422985076904,
                -0.25722381472587585,
                0.6569663882255554
            ]
        }
    ],
    "animations" : [
        {
            "channels" : [
                {
                    "sampler" : 0,
                    "target" : {
                        "node" : 0,
                        "path" : "rotation"
                    }
                }
            ],
            "name" : "CubeAction",
            "samplers" : [
                {
                    "input" : 4,
                    "interpolation" : "LINEAR",
                    "output" : 5
                }
            ]
        }
    ],
    "materials" : [
        {
            "doubleSided" : true,
            "name" : "Material",
            "pbrMetallicRoughness" : {}
        }
    ],
    "meshes" : [
        {
            "name" : "Cube",
            "primitives" : [
                {
                    "attributes" : {
                        "POSITION" : 0,
                        "NORMAL" : 1,
                        "TEXCOORD_0" : 2
                    },
                    "indices" : 3,
                    "material" : 0
                }
            ]
        }
    ],
    "accessors" : [
        {
            "bufferView" : 0,
            "componentType" : 5126,
            "count" : 25027,
            "max" : [
                0.8925241827964783,
                0.859929621219635,
                0.854773759841919
            ],
            "min" : [
                -0.8756758570671082,
                -0.8567942380905151,
                -0.8647939562797546
            ],
            "type" : "VEC3"
        },
        {
            "bufferView" : 1,
            "componentType" : 5126,
            "count" : 25027,
            "type" : "VEC3"
        },
        {
            "bufferView" : 2,
            "componentType" : 5126,
            "count" : 25027,
            "type" : "VEC2"
        },
        {
            "bufferView" : 3,
            "componentType" : 5123,
            "count" : 147456,
            "type" : "SCALAR"
        },
        {
            "bufferView" : 4,
            "componentType" : 5126,
            "count" : 201,
            "max" : [
                8.333333333333334
            ],
            "min" : [
                0
            ],
            "type" : "SCALAR"
        },
        {
            "bufferView" : 5,
            "componentType" : 5126,
            "count" : 201,
            "type" : "VEC4"
        }
    ],
    "bufferViews" : [
        {
            "buffer" : 0,
            "byteLength" : 300324,
            "byteOffset" : 0
        },
        {
            "buffer" : 0,
            "byteLength" : 300324,
            "byteOffset" : 300324
        },
        {
            "buffer" : 0,
            "byteLength" : 200216,
            "byteOffset" : 600648
        },
        {
            "buffer" : 0,
            "byteLength" : 294912,
            "byteOffset" : 800864
        },
        {
            "buffer" : 0,
            "byteLength" : 804,
            "byteOffset" : 1095776
        },
        {
            "buffer" : 0,
            "byteLength" : 3216,
            "byteOffset" : 1096580
        }
    ],
    "buffers" : [
        {
            "byteLength" : 1099796,
            "uri" : "data:application/octet-stream;base64,"
        }
    ]
}
